<svg xmlns="http://www.w3.org/2000/svg" fill="none" viewBox="0 0 36 37" class="h-8 w-8"><path fill="currentColor" d="M31.171 20.31c0 .321-.126.629-.35.856a1.19 1.19 0 0 1-1.694 0 1.22 1.22 0 0 1-.35-.856V9.5c0-.32.125-.629.35-.856a1.19 1.19 0 0 1 1.693 0c.225.227.351.535.351.856zm-.416 7.49c-.158.16-4.61 3.91-12.775 3.91S5.393 27.98 5.205 27.82a1.2 1.2 0 0 1-.414-.811 1.2 1.2 0 0 1 .276-.87 1.19 1.19 0 0 1 1.682-.13c.069.051 4.047 3.31 11.221 3.31s11.182-3.279 11.222-3.309a1.21 1.21 0 0 1 1.692.13 1.2 1.2 0 0 1-.119 1.67zM4.78 9.5c.017-.322.16-.624.398-.839a1.2 1.2 0 0 1 .868-.31c.296.016.574.143.783.355.208.213.331.495.345.794v10.79c0 .32-.126.629-.35.856a1.19 1.19 0 0 1-1.694 0 1.22 1.22 0 0 1-.35-.856zm6.006-2.4c.018-.322.161-.624.399-.839a1.2 1.2 0 0 1 .868-.31c.295.016.574.143.782.355.209.213.332.495.346.794v16c0 .321-.126.629-.35.856a1.19 1.19 0 0 1-1.694 0 1.22 1.22 0 0 1-.35-.856zm6.037-.6c0-.32.126-.629.35-.856a1.19 1.19 0 0 1 1.694 0c.224.227.35.535.35.856v17.4c0 .32-.126.629-.35.856a1.19 1.19 0 0 1-1.694 0 1.22 1.22 0 0 1-.35-.856zm5.937.6c0-.32.126-.629.35-.856a1.19 1.19 0 0 1 1.694 0c.224.227.35.535.35.856v16c0 .321-.126.629-.35.856a1.19 1.19 0 0 1-1.694 0 1.22 1.22 0 0 1-.35-.856zM31.497.5H4.502a4.4 4.4 0 0 0-1.716.334 4.5 4.5 0 0 0-1.458.972A4.561 4.561 0 0 0 0 5v27c.003.594.121 1.182.349 1.73.228.549.56 1.046.979 1.464s.913.748 1.458.972a4.4 4.4 0 0 0 1.716.334h26.995a4.4 4.4 0 0 0 1.715-.333 4.5 4.5 0 0 0 1.457-.97A4.557 4.557 0 0 0 36 32.01V5a4.56 4.56 0 0 0-1.324-3.19 4.5 4.5 0 0 0-1.455-.974A4.4 4.4 0 0 0 31.508.5"></path></svg>