<?xml version="1.0" encoding="UTF-8"?>
<svg id="Capa_1" data-name="Capa 1" xmlns="http://www.w3.org/2000/svg" width="1000" height="1000" xmlns:xlink="http://www.w3.org/1999/xlink" viewBox="0 0 1000 1000">
  <defs>
    <style>
      .cls-1 {
        fill: #c7b5ff;
      }

      .cls-2 {
        isolation: isolate;
      }

      .cls-3 {
        fill: #7a5cff;
      }

      .cls-4 {
        fill: url(#Degradado_sin_nombre_111);
      }

      .cls-5 {
        fill: #6366f1;
      }

      .cls-6 {
        fill: #00e0ff;
      }
    </style>
    <linearGradient id="Degradado_sin_nombre_111" data-name="Degradado sin nombre 111" x1="144.44951" y1="375.9717" x2="854.54" y2="309.23387" gradientUnits="userSpaceOnUse">
      <stop offset="0" stop-color="#00c6ff"/>
      <stop offset="1" stop-color="#7a5cff"/>
    </linearGradient>
  </defs>
  <path class="cls-4" d="M420.45392,104.74431l-225.83059,150.55373c-37.70193,25.13462-60.34775,67.44872-60.34775,112.7608v.00016c0,53.55661,31.54042,102.08982,80.48108,123.84122l225.83059,100.36915c35.0412,15.57386,75.03989,15.57386,110.08109,0l225.83059-100.36915c48.94065-21.7514,80.48108-70.28461,80.48108-123.84122v-.00016c0-45.31209-22.64582-87.62618-60.34775-112.7608l-225.83059-150.55373c-45.52163-30.34775-104.82611-30.34775-150.34774,0Z"/>
  <path class="cls-6" d="M495.63155,505.26924c-.14864,0-.29604-.00248-.44592-.00495-8.56295-.19819-15.93801-6.09675-18.01526-14.40577l-47.75208-191.00585-37.2246,74.44796c-3.22303,6.44605-9.81029,10.51757-17.01689,10.51757h-160.60014c-10.50766,0-19.02602-8.51835-19.02602-19.02602s8.51835-19.02602,19.02602-19.02602h148.84142l54.96735-109.93223c3.56118-7.12113,11.17407-11.26697,19.09291-10.40361,7.91388.86831,14.45036,6.57364,16.38145,14.298l43.43654,173.74123,40.33367-134.44433c2.06239-6.87711,7.82222-12.0077,14.89133-13.26495,7.06663-1.25106,14.24474,1.57188,18.55284,7.31684l54.51771,72.68905h151.08714c10.50766,0,19.02602,8.51835,19.02602,19.02602s-8.51835,19.02602-19.02602,19.02602h-160.60014c-5.98898,0-11.62742-2.81922-15.22081-7.61041l-37.61107-50.14768-49.3958,164.6506c-2.41789,8.06128-9.83878,13.55851-18.21964,13.55851Z"/>
  <g class="cls-2">
    <path class="cls-5" d="M829.34794,520.58116c-11.31723-2.89377-23.29954-1.59111-33.73053,3.66704l-227.83842,114.85091c-45.45651,22.55709-98.84703,22.55709-144.30354,0l-210.28486-104.34999c-13.89141-6.89337-30.21061-6.87765-44.08871.04242v.00008c-36.93042,18.41465-36.87963,71.12522.08609,89.46873l254.28748,126.18547c45.45651,22.55701,98.84703,22.55701,144.30354,0l271.20845-138.74012c11.51212-5.88917,20.18443-16.14567,24.07815-28.47653l.39979-1.26608c8.35549-26.46072-7.2337-54.50786-34.11736-61.38191l-.00007-.00002Z"/>
  </g>
  <path class="cls-3" d="M829.34794,671.23408c-11.31723-2.89377-23.29954-1.59111-33.73053,3.66704l-227.83842,114.85091c-45.45651,22.55709-98.84703,22.55709-144.30354,0l-210.28486-104.34999c-13.89141-6.89337-30.21061-6.87765-44.08871.04242v.00008c-36.93042,18.41465-36.87963,71.12522.08609,89.46873l254.28748,126.18547c45.45651,22.55701,98.84703,22.55701,144.30354,0l271.20845-138.74012c11.51212-5.88917,20.18443-16.14567,24.07815-28.47653l.39979-1.26608c8.35549-26.46072-7.2337-54.50786-34.11736-61.38191l-.00007-.00002Z"/>
  <circle class="cls-1" cx="495.62721" cy="664.67102" r="30.11268"/>
  <circle class="cls-1" cx="495.62721" cy="820.37202" r="30.11268"/>
</svg>